<?xml version="1.0" encoding="UTF-8"?>
<svg width="67px" height="62px" viewBox="0 0 67 62" version="1.1" xmlns="http://www.w3.org/2000/svg" xmlns:xlink="http://www.w3.org/1999/xlink">
    <!-- Generator: Sketch 51.1 (57501) - http://www.bohemiancoding.com/sketch -->
    <title>Group 25</title>
    <desc>Created with Sketch.</desc>
    <defs>
        <path d="M10.4247162,43.2664864 C10.8102813,41.8734546 11,40.4135059 11,39 C11,33.5488665 7.12729932,27.5631984 1.85997919,27.7017005 C1.79088212,27.0450486 1.73306254,26.3623034 1.68734993,25.6524659 C1.64651125,25.0183121 1.64021683,24.4326072 1.66540278,23.8915695 C0.772001803,16.9479999 0.546618421,12.3330293 0.98925264,10.0466578 C1.43670946,7.73537565 2.22597356,6.70908662 3.35704496,6.96779066 C4.48580391,6.78626425 5.05018339,8.50859722 5.05018339,12.1347896 C5.05018339,13.7021675 5.19173248,15.3384226 5.47483066,17.0435547 C5.81441136,14.2135495 6.04649141,12.1684507 6.17107082,10.9082584 C6.32341825,9.36717663 6.01268138,6.97599994 6.17107082,6.15785913 C6.61852764,3.84657703 7.43750006,2.66397579 8.62798809,2.61005541 C10.2392565,2.5833295 11.0448907,4.38306272 11.0448907,8.00925507 C11.0448907,10.462751 10.9784396,13.5186923 10.8455374,17.1770791 C10.8585173,17.176562 10.8714896,17.1760441 10.8844542,17.1755251 C10.9480931,17.1729776 11.0117407,17.1707782 11.0753915,17.1689299 C11.3999454,10.6267235 11.7412376,6.43093932 12.0992681,4.58157729 C12.546725,2.27029519 13.3669932,0.961091758 14.5600728,0.653966999 C15.75109,0.600343869 16.489533,0.740009847 16.7754019,1.07296493 C17.5564037,1.98260777 17.3711323,4.04000649 17.3711323,6.38093142 L17.3711323,18.3147413 C17.3830753,18.3200191 17.3950103,18.3253163 17.4069372,18.3306329 C17.5757096,13.3100805 17.8301486,9.92141809 18.1702541,8.16464573 C18.6177109,5.85336363 19.3425119,4.65087362 20.3446571,4.55717572 C21.3293508,4.43183898 21.9459411,4.43183898 22.1944279,4.55717572 C23.3797098,5.15503183 23.4165868,7.07679484 23.4165868,9.83547687 C23.4165868,11.8585367 22.7736003,15.2741828 22.7736003,18.6074758 C22.7736003,19.8383484 22.8783182,21.5802913 23.087754,23.8333043 C23.4049326,24.4702754 23.6845507,25.1588994 23.9217663,25.9016795 C26.3097875,24.976461 28.294754,23.4134678 29.8766657,21.2126998 C32.805947,17.1374608 37.8368011,18.7950455 37.8368011,21.2126998 C37.8368011,23.630354 34.9023169,24.4433206 29.8766657,30.4072436 C28.0228104,32.6072073 26.268603,34.7702235 24.6140435,36.8962921 C23.1452801,41.7991062 18.7252278,44.0837284 13.0280956,43.7858555 C12.2382587,43.7445591 11.3492917,43.59693 10.4247162,43.2664864 Z" id="path-1"></path>
    </defs>
    <g id="Enterprise" stroke="none" stroke-width="1" fill="none" fill-rule="evenodd">
        <g id="Group-25" transform="translate(7.000000, 6.000000)">
            <g id="Oval-5" transform="translate(15.000000, 0.000000)">
                <mask id="mask-2" fill="white">
                    <use xlink:href="#path-1"></use>
                </mask>
                <use id="Combined-Shape" fill="#D4AC72" xlink:href="#path-1"></use>
                <path d="M20.7272727,44.0454545 C25.0200315,44.0454545 50.2617191,28.3542598 50.2617191,23.8230144 C50.2617191,21.6305938 44.0741244,11.7754405 38.3939543,12.744388 C32.3344775,13.7780393 26.6928807,25.7180672 24.4771521,25.7180672 C20.1843934,25.7180672 12.9545455,31.3096638 12.9545455,35.8409091 C12.9545455,40.3721544 16.434514,44.0454545 20.7272727,44.0454545 Z" fill="#C8A36E" mask="url(#mask-2)"></path>
                <path d="M13.0484856,36.0221918 C12.7043518,33.791769 12.0884039,32.3002433 11.2006419,31.5476148 C10.3128799,30.7949863 8.91266592,29.7329528 7,28.3615142 C11.0323237,28.6098905 13.8854222,30.1636125 15.5592955,33.02268 C17.2331688,35.8817476 16.3962321,36.8815848 13.0484856,36.0221918 Z" id="Path-3" fill="#C8A36E" mask="url(#mask-2)"></path>
                <path d="M4.52481978,20.4292097 C6.44303201,19.5708978 8.17251518,19.7631833 9.7132693,21.0060662 C12.0233693,18.8722979 15.5537691,20.0292235 16.3900557,21.4584867 C17.4037052,20.5018582 20.0000696,20.5018582 20.975797,22.1395433" id="Path-5" stroke="#C8A36E" mask="url(#mask-2)"></path>
            </g>
            <path d="M15,49.1130081 C21.3945665,50.1443263 24.3843299,44.2296158 24.3843299,39.0467935 C24.3843299,33.8639712 20.280755,28.1147476 15,29.6624637 C9.71924495,31.2101797 5.61567014,33.8639712 5.61567014,39.0467935 C5.61567014,44.2296158 8.60543354,48.0816899 15,49.1130081 Z" id="Oval-10-Copy" fill="#E46283"></path>
            <path d="M12.078125,42.9091589 C12.4609394,42.4534275 12.8619771,41.9475731 13.28125,41.3915808 C13.7005229,40.8355884 14.1015606,40.2659327 14.484375,39.6825964 C14.0651021,39.299782 13.6412782,38.8987443 13.2128906,38.4794714 C12.7845031,38.0601985 12.4016944,37.6591608 12.0644531,37.2763464 C11.7272119,36.893532 11.4492198,36.5380668 11.2304688,36.2099402 C11.0117177,35.8818135 10.9023438,35.6174932 10.9023438,35.4169714 C10.9023438,35.2164496 10.9661452,35.056946 11.09375,34.9384558 C11.2213548,34.8199656 11.3763012,34.7607214 11.5585938,34.7607214 C11.7408863,34.7607214 11.9596341,34.8609808 12.2148438,35.0615027 C12.4700534,35.2620245 12.7571599,35.530902 13.0761719,35.8681433 C13.3951839,36.2053846 13.7552063,36.5881932 14.15625,37.0165808 C14.5572937,37.4449683 14.9947893,37.8779067 15.46875,38.3154089 C15.7239596,37.9143652 15.9700509,37.4950986 16.2070312,37.0575964 C16.4440116,36.6200942 16.6718739,36.2236138 16.890625,35.8681433 C17.1093761,35.5126728 17.3235667,35.2164518 17.5332031,34.9794714 C17.7428396,34.7424911 17.9570302,34.6240027 18.1757812,34.6240027 C18.3763031,34.6240027 18.5358067,34.6969186 18.6542969,34.8427527 C18.7727871,34.9885867 18.8320312,35.1617621 18.8320312,35.3622839 C18.8320312,35.5445765 18.7591153,35.7906678 18.6132812,36.1005652 C18.4674472,36.4104625 18.2806001,36.752256 18.0527344,37.1259558 C17.8248687,37.4996556 17.5833346,37.8870215 17.328125,38.2880652 C17.0729154,38.6891088 16.8359386,39.062803 16.6171875,39.4091589 C17.218753,39.9924952 17.8203095,40.5484792 18.421875,41.0771277 C19.0234405,41.6057761 19.588539,42.0706152 20.1171875,42.4716589 C20.3177093,42.6539515 20.4179688,42.8635848 20.4179688,43.1005652 C20.4179688,43.3193163 20.3222666,43.5061633 20.1308594,43.661112 C19.9394522,43.8160607 19.7434906,43.8935339 19.5429688,43.8935339 C19.3789054,43.8935339 19.1601576,43.802389 18.8867188,43.6200964 C18.6132799,43.4378038 18.2988299,43.200827 17.9433594,42.9091589 C17.5878888,42.6174908 17.2187519,42.2893691 16.8359375,41.9247839 L15.6875,40.8310339 C15.4140611,41.2503068 15.1360691,41.6650162 14.8535156,42.0751745 C14.5709621,42.4853328 14.2975274,42.8499125 14.0332031,43.1689245 C13.7688789,43.4879365 13.5182304,43.7431423 13.28125,43.9345495 C13.0442696,44.1259567 12.8346363,44.2216589 12.6523438,44.2216589 C12.4518219,44.2216589 12.2740893,44.1533002 12.1191406,44.0165808 C11.9641919,43.8798614 11.8867188,43.7021288 11.8867188,43.4833777 C11.8867188,43.3010851 11.9505202,43.1096807 12.078125,42.9091589 Z" id="x" fill="#FFFFFF"></path>
            <path d="M5.14261245,32.3931193 C2.88953698,34.1615531 2.13851182,37.1412522 2.88953698,41.3322166" id="Path-6" stroke="#E46283" stroke-linecap="round"></path>
            <path d="M2.32575975,31.9386407 C0.357029989,33.3298673 -0.355020487,35.7196931 0.189608316,39.108118" id="Path-6-Copy" stroke="#E46283" stroke-linecap="round"></path>
        </g>
    </g>
</svg>