<?xml version="1.0" encoding="UTF-8"?>
<svg width="102px" height="60px" viewBox="0 0 102 60" version="1.1" xmlns="http://www.w3.org/2000/svg" xmlns:xlink="http://www.w3.org/1999/xlink">
    <!-- Generator: Sketch 50.2 (55047) - http://www.bohemiancoding.com/sketch -->
    <title>Artboard 2</title>
    <desc>Created with Sketch.</desc>
    <defs>
        <linearGradient x1="107.426929%" y1="0%" x2="22.2147941%" y2="87.9950937%" id="linearGradient-1">
            <stop stop-color="#65BEF7" offset="0%"></stop>
            <stop stop-color="#49BBD9" offset="100%"></stop>
        </linearGradient>
    </defs>
    <g id="Artboard-2" stroke="none" stroke-width="1" fill="none" fill-rule="evenodd">
        <g id="Group-30" transform="translate(53.000000, 28.500000) rotate(-20.000000) translate(-53.000000, -28.500000) translate(24.000000, 4.000000)">
            <path d="M24.9654144,11.2 C31.7166456,11.2 36.1176904,11.2 38.1685489,11.2 C40.2194074,11.2 45.2927602,11.2 53.3886075,11.2 C53.0932324,12.334093 52.8469617,12.9976614 52.6497953,13.1907052 C50.837794,14.9648191 49.3264456,15.197278 48.4906402,16.0591956 C47.518417,17.061793 46.2756864,18.4072803 44.7624483,20.0956577 L50.9672588,30.7034182 C45.4946074,29.3519904 42.0864213,28.6210361 40.7427003,28.5105554 C39.3989794,28.4000746 33.9169436,28.4000746 24.2965931,28.5105554 C24.2965931,26.4269829 24.2965931,23.5418904 24.2965931,19.8552777 C24.2965931,16.168665 24.5195336,13.2835724 24.9654144,11.2 Z" id="Rectangle-7" fill="url(#linearGradient-1)"></path>
            <polygon id="Path-37" fill="#4989B2" points="24.2360888 28.488108 38.2418088 21.8210539 23.6788944 20.4313247"></polygon>
            <path d="M13.7327545,4.90726306 C13.8422694,16.0296671 13.8422694,23.5261713 13.7327545,27.3967758 C13.6047494,31.9208822 12.7317073,35.8329679 12.7317073,38.0936802 C12.7317073,43.2556251 12.7317073,46.7121988 12.7317073,48.4634012 L14.8157457,48.4634012 C16.7161273,48.0539547 17.6663182,44.9962826 17.6663182,39.2903849 C17.6663182,33.5844872 17.9901642,24.5070905 18.6378563,12.0581948 L17.6663182,3.63148421 C19.7983115,1.95541457 20.1221575,1.11737976 18.6378563,1.11737976 C16.4114046,1.11737976 15.1232343,-1.3967247 13.7327545,1.11737976 C12.805768,2.79344939 12.805768,4.05674383 13.7327545,4.90726306 Z" id="Path-38" fill="#4B5E5F"></path>
            <path d="M12.2722029,5.6 C18.409376,4.90241054 22.4940902,4.55361582 24.5263453,4.55361582 C27.3964882,4.55361582 29.3935133,5.6 30.3880611,5.6 C32.4389196,5.6 35.1238774,5.6 38.4429346,5.6 L38.4429346,21.7 C32.6716467,21.4819174 28.0327836,21.4819174 24.5263453,21.7 C21.9665409,21.8592068 18.8032179,22.2097109 15.0363764,22.7515123 C14.1077067,22.8850869 12.6321666,23.1116102 10.6097561,23.4310821 C10.6097561,20.5969734 10.6097561,17.3366127 10.6097561,13.65 C10.6097561,9.96338732 11.163905,7.28005399 12.2722029,5.6 Z" id="Rectangle-7-Copy" fill="#73C0F1"></path>
            <path d="M8.53078173,8.06127715 C8.96685005,7.7225543 8.1301336,7 7.65664035,7 L4.20780169,7.08305873 C3.73430845,7.08305873 2.82926829,7.38485777 2.82926829,7.74152936 C2.82926829,8.09820096 3.73430845,8.4 4.20780169,8.4 L7.09109434,8.4 C7.60101014,8.4 8.09471341,8.4 8.53078173,8.06127715 Z" id="Shape-Copy-2" fill="#54BCE5"></path>
            <path d="M2.85274178,11.5612771 C3.07092776,11.2225543 2.65227822,10.5 2.41536675,10.5 L0.689746656,10.5830587 C0.452835179,10.5830587 0,10.8848578 0,11.2415294 C0,11.598201 1.21999082,11.9 1.4569023,11.9 L2.13239684,11.9 C2.38753228,11.9 2.6345558,11.9 2.85274178,11.5612771 Z" id="Shape-Copy-3" fill="#54BCE5"></path>
            <path d="M57.6668808,30.3703996 C57.8577935,30.0606817 57.4914752,29.4 57.2841776,29.4 L55.77426,29.4759464 C55.5669625,29.4759464 55.1707317,29.7519023 55.1707317,30.078032 C55.1707317,30.4041616 56.2382237,30.6801175 56.4455212,30.6801175 L57.0365789,30.6801175 C57.2598224,30.6801175 57.475968,30.6801175 57.6668808,30.3703996 Z" id="Shape-Copy-5" fill="#54BCE5"></path>
            <path d="M54.8376125,28.5306386 C55.0285252,28.3612771 54.6622069,28 54.4549093,28 L52.9449917,28.0415294 C52.7376942,28.0415294 52.3414634,28.1924289 52.3414634,28.3707647 C52.3414634,28.5491005 53.4089554,28.7 53.6162529,28.7 L54.2073106,28.7 C54.4305542,28.7 54.6466997,28.7 54.8376125,28.5306386 Z" id="Shape-Copy-6" fill="#54BCE5"></path>
        </g>
    </g>
</svg>