<?xml version="1.0" encoding="UTF-8"?>
<svg width="30px" height="30px" viewBox="0 0 30 30" version="1.1" xmlns="http://www.w3.org/2000/svg" xmlns:xlink="http://www.w3.org/1999/xlink">
    <!-- Generator: Sketch 54.1 (76490) - https://sketchapp.com -->
    <title>Artboard</title>
    <desc>Created with Sketch.</desc>
    <g id="Artboard" stroke="none" stroke-width="1" fill="none" fill-rule="evenodd">
        <g id="Group-16" transform="translate(2.000000, 5.000000)">
            <rect id="Rectangle" fill="#EAA641" x="0" y="1.46666667" width="20.8695652" height="20.5333333" rx="3.359232"></rect>
            <rect id="Rectangle-Copy-3" fill="#EFC232" x="0" y="0" width="20.8695652" height="20.5333333" rx="3.359232"></rect>
            <path d="M6.92061993,17.4723981 C6.41080372,17.4723981 5.93677119,17.3689992 5.49850813,17.1621981 C5.06024507,16.9553971 4.70248467,16.6672 4.4252162,16.2975981 C4.31788648,16.1391973 4.26422242,15.9851989 4.26422242,15.8355981 C4.26422242,15.6243971 4.34919051,15.4417989 4.51912925,15.2877981 C4.68906799,15.1337973 4.86347618,15.0567981 5.04235906,15.0567981 C5.27490681,15.0567981 5.52533909,15.1887968 5.79366341,15.4527981 C5.96360215,15.6111989 6.13801034,15.7233978 6.31689322,15.7893981 C6.4957761,15.8553984 6.69701633,15.8883981 6.92061993,15.8883981 C7.18000011,15.8883981 7.42819639,15.8223988 7.6652162,15.6903981 C7.90223602,15.5583975 8.09229623,15.3801992 8.23540254,15.1557981 C8.37850885,14.931397 8.45006092,14.6959994 8.45006092,14.4495981 L8.45006092,8.90559812 C8.45006092,8.67679698 8.53502902,8.48539889 8.70496776,8.33139812 C8.8749065,8.17739735 9.07167471,8.10039812 9.29527832,8.10039812 C9.54571435,8.10039812 9.74695457,8.17519737 9.89900502,8.32479812 C10.0510555,8.47439887 10.1270796,8.66799693 10.1270796,8.90559812 L10.1270796,14.4495981 C10.1270796,14.9776008 9.9839754,15.4747958 9.69776279,15.9411981 C9.41155018,16.4076005 9.02248574,16.7793967 8.53055782,17.0565981 C8.03862989,17.3337995 7.5019893,17.4723981 6.92061993,17.4723981 Z M15.1581355,17.4723981 C14.5141571,17.4723981 13.9417404,17.3931989 13.4408684,17.2347981 C12.9399963,17.0763973 12.4704358,16.808 12.0321727,16.4295981 C11.7906808,16.2183971 11.6699367,15.9851994 11.6699367,15.7299981 C11.6699367,15.5275971 11.7459608,15.3493989 11.8980112,15.1953981 C12.0500617,15.0413973 12.2334139,14.9643981 12.4480733,14.9643981 C12.6180121,14.9643981 12.7700603,15.0171976 12.9042224,15.1227981 C13.2619882,15.4131996 13.6108046,15.6243975 13.950682,15.7563981 C14.2905595,15.8883988 14.69304,15.9543981 15.1581355,15.9543981 C15.6590075,15.9543981 16.090556,15.8443992 16.4527938,15.6243981 C16.8150317,15.404397 16.9961479,15.1315997 16.9961479,14.8059981 C16.9961479,14.4099961 16.8172677,14.0997992 16.4595019,13.8753981 C16.1017362,13.650997 15.5337915,13.4815987 14.755651,13.3671981 C12.7968834,13.0855967 11.8175143,12.1880057 11.8175143,10.6743981 C11.8175143,10.1199953 11.9650905,9.63820017 12.2602473,9.22899812 C12.555404,8.81979607 12.9578845,8.5073992 13.4677007,8.29179812 C13.9775169,8.07619704 14.5454615,7.96839812 15.1715516,7.96839812 C15.7350327,7.96839812 16.2649653,8.05199728 16.7613653,8.21919812 C17.2577653,8.38639896 17.6714257,8.60639676 18.0023591,8.87919812 C18.2617392,9.08159913 18.3914274,9.3147968 18.3914274,9.57879812 C18.3914274,9.78119913 18.3154033,9.95939735 18.1633529,10.1133981 C18.0113024,10.2673989 17.8324222,10.3443981 17.6267069,10.3443981 C17.4925447,10.3443981 17.3718006,10.3047985 17.2644709,10.2255981 C17.0319231,10.0407972 16.7077028,9.87139889 16.2918001,9.71739812 C15.8758974,9.56339735 15.5024849,9.48639812 15.1715516,9.48639812 C14.6080705,9.48639812 14.17205,9.58979709 13.8634771,9.79659812 C13.5549041,10.0033992 13.4006199,10.2739964 13.4006199,10.6083981 C13.4006199,10.9868 13.5593761,11.2727972 13.8768932,11.4663981 C14.1944103,11.6599991 14.6930389,11.8183975 15.3727938,11.9415981 C16.1419902,12.0735988 16.7568909,12.2429971 17.2175143,12.4497981 C17.6781378,12.6565992 18.0247181,12.9381963 18.2572659,13.2945981 C18.4898136,13.6509999 18.6060858,14.1239952 18.6060858,14.7135981 C18.6060858,15.2680009 18.4473296,15.754196 18.1298125,16.1721981 C17.8122954,16.5902002 17.3896909,16.911397 16.8619864,17.1357981 C16.3342819,17.3601992 15.7663373,17.4723981 15.1581355,17.4723981 Z" id="JS" fill="#FFFFFF" fill-rule="nonzero"></path>
        </g>
    </g>
</svg>