<?xml version="1.0" encoding="UTF-8"?>
<svg width="102px" height="60px" viewBox="0 0 102 60" version="1.1" xmlns="http://www.w3.org/2000/svg" xmlns:xlink="http://www.w3.org/1999/xlink">
    <!-- Generator: Sketch 50.2 (55047) - http://www.bohemiancoding.com/sketch -->
    <title>Artboard 2</title>
    <desc>Created with Sketch.</desc>
    <defs>
        <linearGradient x1="25.5675194%" y1="81.2760238%" x2="87.1967185%" y2="-12.9748635%" id="linearGradient-1">
            <stop stop-color="#8894F3" offset="0%"></stop>
            <stop stop-color="#505BE4" offset="100%"></stop>
        </linearGradient>
    </defs>
    <g id="Artboard-2" stroke="none" stroke-width="1" fill="none" fill-rule="evenodd">
        <g id="Group-28" transform="translate(3.000000, 14.000000)" fill-rule="nonzero">
            <g id="download-(10)" transform="translate(44.342538, 20.000000) rotate(-20.000000) translate(-44.342538, -20.000000) translate(19.034845, 8.916667)" fill="url(#linearGradient-1)">
                <path d="M31.2352682,6.52256834 C31.2352682,7.05252702 30.8215561,7.50095359 30.242359,7.50095359 L17.8309942,7.50095359 C17.2931684,7.50095359 16.3273811,7.05252702 16.3273811,6.52256834 C16.3273811,5.99260966 17.2931684,5.54418309 17.8309942,5.54418309 C19.7184735,5.12652128 20.8854444,4.91769037 21.3319068,4.91769037 C23.6435255,4.91769037 26.6136762,5.12652128 30.242359,5.54418309 C30.7801849,5.54418309 31.2352682,5.99260966 31.2352682,6.52256834 Z M29.6217908,11.2106643 C29.6217908,11.740623 29.2080786,12.1890496 28.6288816,12.1890496 C28.1027141,12.1890496 27.3610135,12.1890496 26.4037798,12.1890496 C25.9084242,12.1890496 24.4712407,12.1890496 22.0922294,12.1890496 C21.5544036,12.1890496 20.5263975,11.740623 20.5263975,11.2106643 C20.5263975,10.6807057 21.5544036,10.2322791 22.0922294,10.2322791 L28.6288816,9.63377108 C29.1667074,9.63377108 29.6217908,10.6807057 29.6217908,11.2106643 Z M11.4407124,2.3922143 C10.9453964,2.89550393 10.3846146,2.89550393 9.80541761,2.89550393 L6.53037787,2.89550393 C5.99255206,2.89550393 4.96454594,2.44707736 4.96454594,1.91711868 C4.96454594,1.38716 5.99255206,0.938733428 6.53037787,0.938733428 L10.4478032,0.815321043 C10.985629,0.815321043 11.9360284,1.88892467 11.4407124,2.3922143 Z M14.4105664,6.87648004 C14.1627359,7.37976966 13.8821498,7.37976966 13.5923496,7.37976966 L12.825077,7.37976966 C12.5559769,7.37976966 11.1702284,6.93134309 11.1702284,6.40138441 C11.1702284,5.87142574 11.6845893,5.42299916 11.9536895,5.42299916 L13.9137661,5.29958678 C14.1828662,5.29958678 14.6583968,6.37319041 14.4105664,6.87648004 Z M2.83529575,6.39706255 C2.61844409,6.74733874 2.37293125,6.74733874 2.1193561,6.74733874 L1.44799257,6.74733874 C1.21252993,6.74733874 3.23296945e-13,6.43524577 3.23296945e-13,6.06640863 C3.23296945e-13,5.69757148 0.450065851,5.38547851 0.685528489,5.38547851 L2.4005955,5.29958678 C2.63605813,5.29958678 3.05214741,6.04678635 2.83529575,6.39706255 Z M18.9700701,16.5885756 C18.7532184,16.9388518 18.5077056,16.9388518 18.2541304,16.9388518 L17.5827669,16.9388518 C17.3473042,16.9388518 16.1347743,16.6267588 16.1347743,16.2579217 C16.1347743,15.8890845 16.5848402,15.5769915 16.8203028,15.5769915 L18.5353698,15.4910998 C18.7708324,15.4910998 19.1869217,16.2382994 18.9700701,16.5885756 Z M39.3440266,0.856087095 C45.2601105,0.856087095 50.0591716,5.58494914 50.0591716,11.4144946 C50.0591716,17.2440401 45.817086,22.0136682 39.3440266,22.0136682 C36.5417659,22.0136682 32.0213213,20.0161316 30.1182454,16.7956135 L27.3129686,16.7956135 C26.7751428,16.7956135 24.6572449,16.3471869 24.6572449,15.8172282 C24.6572449,15.2872695 25.1123282,14.838843 25.650154,14.838843 L30.7388136,14.838843 C31.1111546,14.838843 31.4421243,15.0426732 31.6076092,15.3688017 C33.1383442,18.2224253 36.1170717,20.0161316 39.3853978,20.0161316 C44.1844589,20.0161316 47.2446719,16.8643127 47.2446719,12.1354506 C47.2446719,7.40658858 44.2258301,2.8128576 39.3853978,2.8128576 L13.8179862,2.8128576 C13.2801604,2.8128576 12.825077,2.36443102 12.825077,1.83447235 C12.825077,1.30451367 13.2801604,0.856087095 13.8179862,0.856087095 C21.7176285,0.392991085 26.8520632,0.161443079 29.2212902,0.161443079 C32.5245166,0.161443079 35.8987621,0.392991085 39.3440266,0.856087095 Z M39.0202812,4.66001015 C39.6408494,4.66001015 40.0714593,5.01422441 39.9473456,5.58494914 C40.1794916,6.50019983 40.2955646,7.17596026 40.2955646,7.61223044 C40.2955646,8.40800095 40.1794916,9.60565718 39.9473456,11.2051991 C40.6883193,11.7326827 41.2007847,12.1149876 41.484742,12.3521138 C41.8205893,12.6325721 42.2378308,13.0266439 42.7364663,13.5343293 C43.1501785,13.9419898 43.1501785,14.9611411 42.7364663,15.3688017 C42.5296102,15.5726319 42.281383,15.3688017 41.9917844,15.3688017 C41.7435571,15.3688017 41.4539586,15.2465035 41.2471025,15.0426732 C39.426769,13.2489669 38.5166023,12.3521138 38.5166023,12.3521138 C38.4752311,12.3113477 38.4338598,12.2298156 38.3924886,12.1890496 C38.3511174,12.1482835 38.3511174,12.0667514 38.3097462,12.0259854 C38.3097462,11.9444533 38.268375,11.9036872 38.268375,11.8221551 C38.268375,11.740623 38.268375,11.699857 38.268375,11.6183249 L38.268375,5.58494914 C38.268375,5.01422441 38.4410841,4.66001015 39.0202812,4.66001015 Z" id="Combined-Shape"></path>
            </g>
            <path d="M17.3953869,25.9837437 C17.925682,26.3948066 18.9943457,28.7902888 17.8372775,30.4458832 C16.6802094,32.1014776 14.8378957,31.6045142 14.3076007,31.1934514 C11.153916,28.5648821 8.87999863,26.7102536 7.48584851,25.6295659 C5.69344329,24.2401673 3.56837552,22.2278806 1.1106452,19.5927057 C0.514750368,19.1307926 0.558070136,17.7794922 1.1106452,17.2656001 C1.23537402,17.149603 4.48747712,12.7986416 7.97324695,9.38083323 C10.3035261,7.0959872 13.3380075,5.29693775 13.3953883,5.20479486 C13.7512532,4.63334156 14.8511088,4.2392937 16.076603,4.72204428 C17.3020972,5.20479486 17.1845845,7.15669372 16.8287195,7.72814701 C16.7443092,7.86369441 15.2101992,9.20392098 12.1288558,12.0707326 C9.78083996,14.255273 5.74678602,18.0993443 5.40214669,18.4266481 C5.39912771,18.4295153 9.39687445,20.9485471 17.3953869,25.9837437 Z" id="Path-3-Copy-11" fill="#8346C5"></path>
            <path d="M91.2697108,24.1807074 C91.8094158,24.5990645 94.2392282,27.3975165 93.0616281,29.0824891 C91.8840281,30.7674616 90.009023,30.2616797 89.469318,29.8433227 C86.259672,27.1681101 83.9454045,25.2805716 82.5265155,24.1807074 C80.7023045,22.7666543 78.8777493,20.5951307 77.0528499,17.6661367 C76.4463811,17.1960271 77.596482,15.8093091 78.1588624,15.2862982 C78.2858045,15.1682427 79.4749387,11.1221014 83.0225627,7.64364489 C85.3941921,5.31825482 88.4825196,3.48728168 88.5409186,3.39350373 C88.9030983,2.81191013 90.0224705,2.41087 91.2697108,2.90218686 C92.5169512,3.39350373 92.3973532,5.38003856 92.0351735,5.96163216 C91.9492653,6.09958482 90.3879329,7.46359337 87.2519118,10.3812759 C84.862231,12.6045804 82.1232228,16.5932033 82.5265155,16.4679487 C83.9402999,16.0288557 86.8546984,18.5997752 91.2697108,24.1807074 Z" id="Path-3-Copy-12" fill="#8346C5" transform="translate(85.130446, 16.467949) scale(-1, -1) translate(-85.130446, -16.467949) "></path>
        </g>
    </g>
</svg>