<?xml version="1.0" encoding="UTF-8"?>
<svg width="102px" height="60px" viewBox="0 0 102 60" version="1.1" xmlns="http://www.w3.org/2000/svg" xmlns:xlink="http://www.w3.org/1999/xlink">
    <!-- Generator: Sketch 50.2 (55047) - http://www.bohemiancoding.com/sketch -->
    <title>Artboard 2</title>
    <desc>Created with Sketch.</desc>
    <defs></defs>
    <g id="Artboard-2" stroke="none" stroke-width="1" fill="none" fill-rule="evenodd">
        <g id="Group-29" transform="translate(47.000000, 30.500000) rotate(10.000000) translate(-47.000000, -30.500000) translate(22.000000, 5.000000)">
            <path d="M26.1214824,8.9355773 L23.853041,3.90112218 C22.9477331,3.7105499 22.0858912,3.46951407 21.2675155,3.17801468 C20.4491398,2.8865153 19.8502279,2.60724144 19.4707798,2.3401931" id="Path-33" stroke="#9DA5B5" stroke-width="2.4" stroke-linecap="round" stroke-linejoin="round"></path>
            <path d="M32.8433208,8.94400939 C33.3117562,7.87452973 33.6856221,6.96297829 33.9649187,6.20935506 C34.2442152,5.45573183 34.5197927,4.61489609 34.7916511,3.68684784 L38.944346,0.063849136" id="Path-34" stroke="#9DA5B5" stroke-width="2.4" stroke-linecap="round" stroke-linejoin="round"></path>
            <path d="M39.1758884,17.9033555 L43.5853195,12.2950221 C44.9560436,11.8820153 45.8447331,11.6755119 46.2513879,11.6755119 C46.6580427,11.6755119 47.4692023,11.8820153 48.6848667,12.2950221" id="Path-35" stroke="#9DA5B5" stroke-width="2.4" stroke-linecap="round" stroke-linejoin="round"></path>
            <polyline id="Path-36" stroke="#9DA5B5" stroke-width="2.4" stroke-linecap="round" stroke-linejoin="round" points="39.5987511 23.2448379 45.4615261 27.4727882 49.8729332 27.4727882"></polyline>
            <path d="M30.1587302,21.515625 C34.1036212,21.515625 37.3015873,17.9478941 37.3015873,13.546875 C37.3015873,9.1458559 33.9849947,6.53549391 30.1587302,5.578125 C28.0818538,5.05847017 26.5395385,6.45807722 25.2118746,8.27237174 C24.0935607,9.80058281 23.015873,11.534706 23.015873,13.546875 C23.015873,17.9478941 26.2138391,21.515625 30.1587302,21.515625 Z" id="Oval-13-Copy" fill="#5B464B"></path>
            <path d="M30.5555556,38.25 C37.3495346,38.25 42.2196427,31.518254 42.8571429,24.3046875 C43.494643,17.091121 37.3495346,11.4023715 30.5555556,10.359375 C23.7615765,9.31637849 18.2539683,16.6029041 18.2539683,24.3046875 C18.2539683,32.0064709 23.7615765,38.25 30.5555556,38.25 Z" id="Oval-13" fill="#D16783"></path>
            <path d="M12.7968592,28.0764268 C9.53087009,30.1140171 6.31098747,29.491861 3.13721138,26.2099584 C-0.0365647001,22.9280558 -0.651592908,19.6325957 1.29212676,16.3235782 L5.89471135,20.2142448 L10.6321575,20.2142448 L11.5598868,14.4655418 L7.89787551,9.34924582 C11.2168359,8.67699313 14.2175479,9.36164596 16.9000113,11.4032043 C18.0603191,12.2862867 19.582066,14.176665 20.1431118,15.5944823 C20.6337856,16.8344627 20.6337856,18.90792 20.1431118,21.8148543 C21.2864447,24.0191223 23.4999857,26.7984487 26.7837347,30.1528332 C30.0674838,33.5072178 35.0271313,38.0553797 41.6626771,43.7973189 C42.2001476,46.3385201 41.4059625,48.2527704 39.2801221,49.5400698 C37.1542816,50.8273692 35.0918376,50.5039737 33.0927901,48.5698832 C32.3249536,46.5390848 30.4415042,44.0095607 27.4424421,40.9813109 C25.8859583,39.4096789 22.0319766,37.6104562 19.4612259,35.3528533 C17.8728128,33.9579276 15.6513572,31.5324521 12.7968592,28.0764268 Z M36.9047619,47.015625 C38.000565,47.015625 38.8888889,46.3020788 38.8888889,45.421875 C38.8888889,44.5416712 38.000565,43.828125 36.9047619,43.828125 C35.8089588,43.828125 34.9206349,44.5416712 34.9206349,45.421875 C34.9206349,46.3020788 35.8089588,47.015625 36.9047619,47.015625 Z" id="Combined-Shape" fill="#553C49"></path>
        </g>
    </g>
</svg>