<?xml version="1.0" encoding="UTF-8"?>
<svg width="78px" height="59px" viewBox="0 0 78 59" version="1.1" xmlns="http://www.w3.org/2000/svg" xmlns:xlink="http://www.w3.org/1999/xlink">
    <!-- Generator: Sketch 50.2 (55047) - http://www.bohemiancoding.com/sketch -->
    <title>Group 28</title>
    <desc>Created with Sketch.</desc>
    <defs>
        <path d="M19.125,38.2641509 C29.6874458,38.2641509 36.2190209,32.595185 38.25,19.5 C40.2809791,6.40481498 29.8134819,0.160407307 19.2510361,0.160407307 C8.68859022,0.160407307 -1.7167081,4.13305667 1.04082662,19.5 C3.79836134,34.8669433 8.56255416,38.2641509 19.125,38.2641509 Z" id="path-1"></path>
    </defs>
    <g id="Enterprise" stroke="none" stroke-width="1" fill="none" fill-rule="evenodd">
        <g id="Group-28" transform="translate(-2.000000, 3.000000)">
            <g id="man" transform="translate(41.580058, 28.580058) rotate(6.000000) translate(-41.580058, -28.580058) translate(22.080058, 9.080058)">
                <mask id="mask-2" fill="white">
                    <use xlink:href="#path-1"></use>
                </mask>
                <use id="Oval" fill="#E9E3E0" fill-rule="nonzero" xlink:href="#path-1"></use>
                <g id="Group" mask="url(#mask-2)" fill="#84DBFF" fill-rule="nonzero">
                    <g transform="translate(4.216535, 25.557718)" id="Shape">
                        <path d="M15.0101102,1.97983955 C14.9781102,1.97983955 14.9461102,2.01983955 14.9141102,2.01983955 C14.8821102,2.01983955 14.8501102,1.97983955 14.8181102,1.97983955 L15.0101102,1.97983955 Z"></path>
                        <path d="M29.7566929,5.76221958 C29.7566929,11.3465156 20.4200818,17.0284904 14.4265778,17.0284904 C8.43307391,17.0284904 3.55393701,9.98784727 0.0602362205,5.76221958 C1.18928481,4.28077642 2.47162773,3.17353472 3.95541739,2.29098934 C5.75685577,1.21950924 7.79975085,0.496594438 9.51732283,0.059099688 C9.27637795,2.00938939 10.3003937,4.60977566 10.3305118,4.55067598 C10.6985782,3.72525483 10.4303065,2.33134951 11.1454251,1.94888647 C12.4783901,1.235984 14.9084646,1.97983955 14.9084646,1.97983955 C14.9084646,1.97983955 18.4322835,2.18668846 19.4562992,4.55067598 C19.4864173,4.60977566 20.5405512,2.00938939 20.2694882,0.059099688 C21.3396345,0.329088087 22.6740979,1.48829505 23.8223638,1.97983955 C24.7450584,2.37482246 26.2707597,2.74973892 27.1133033,3.16702666 C28.320734,3.76503255 28.7942987,4.48404664 29.7566929,5.76221958 Z"></path>
                    </g>
                </g>
                <path d="M23.4318898,23.7847274 C23.4318898,23.7847274 23.4318898,23.7847274 23.4318898,23.8142772 C23.4318898,24.1097757 23.2812992,26.0009657 19.2153543,27.5080077 L19.0346457,27.5080077 C14.9687008,26.0009657 14.8181102,24.1097757 14.8181102,23.8142772 C14.8181102,23.7847274 14.8181102,23.7847274 14.8181102,23.7847274 C14.8181102,23.4005794 14.9084646,23.0164314 14.9988189,22.6322835 C16.1734252,24.0802258 17.5889764,25.0553707 19.125,25.0553707 C20.6610236,25.0553707 22.0765748,24.0802258 23.2511811,22.6322835 C23.3415354,23.0164314 23.4318898,23.4005794 23.4318898,23.7847274 Z" id="Shape" fill="#FFF4DF" fill-rule="nonzero" mask="url(#mask-2)"></path>
                <g id="Group" mask="url(#mask-2)" fill="#54C0EB" fill-rule="nonzero">
                    <g transform="translate(12.953740, 23.784727)" id="Shape">
                        <path d="M10.4781496,0 C10.4781496,0 10.6889764,2.12758877 6.17125984,3.78238003 C6.17125984,3.78238003 9.69507874,3.98922894 10.7190945,6.35321646 C13.6900959,9.97026218 12.7972441,1.27064329 10.4781496,0 Z"></path>
                        <path d="M1.86437008,0 C0.44488172,0.777744663 -0.0934669836,3.10246479 0.293281157,4.69366531 C0.538384258,5.70209468 1.6000588,6.35805489 1.6234252,6.32366662 C2.00347025,5.47138229 3.04427016,5.94927173 3.78046515,5.566366 C5.08625981,4.88720321 6.17125984,3.75283019 6.17125984,3.75283019 C1.65354331,2.12758877 1.86437008,0 1.86437008,0 Z"></path>
                    </g>
                </g>
                <g id="Group" mask="url(#mask-2)" fill="#FFF4DF" fill-rule="nonzero">
                    <g transform="translate(11.143701, 8.714307)" id="Shape">
                        <path d="M14.3061024,7.59430991 C14.0350394,9.42640024 13.2218504,11.1402912 11.8665354,12.4404843 C11.5954724,12.7064329 11.3545276,12.9132818 11.0533465,13.1201307 L10.5714567,11.6130887 L5.39114173,11.6130887 L4.90925197,13.1201307 C3.94547244,12.4109345 1.92755906,10.4310949 1.89744094,8.56945476 C1.05413386,-2.03893924 9.33661417,0.206848908 9.33661417,0.206848908 C14.9084646,-0.177299064 14.7277559,4.63932551 14.3061024,7.59430991 Z"></path>
                        <path d="M15.0891732,10.2319527 C14.6675197,10.9115991 14.4265748,10.6674937 13.8844488,10.8447927 C14.0952756,10.3719952 14.2759843,9.8696479 14.4265748,9.36730055 C14.4265748,9.36730055 14.4265748,9.36730055 14.4265748,9.33775071 C14.5470472,8.89450305 14.6675197,8.45125539 14.7879921,8.00800773 L14.757874,8.00800773 C14.8783465,7.56476007 14.9988189,7.12151241 15.0891732,6.67826475 C15.2096457,6.67826475 15.3301181,6.73736443 15.4505906,6.79646412 C16.113189,7.21016194 15.7517717,9.13860842 15.0891732,10.2319527 Z"></path>
                        <path d="M2.07814961,10.8447927 C1.53602362,10.6674937 0.963779528,10.1946962 0.542125984,9.51504977 C-0.150590551,8.42170554 -0.150590551,7.21016194 0.512007874,6.82601397 C0.572244094,6.79646412 0.602362205,6.76691428 0.662598425,6.76691428 C1.02401575,8.15575695 1.44566929,9.19000149 1.53602362,9.39685039 C1.68661417,9.8696479 1.86732283,10.3719952 2.07814961,10.8447927 Z"></path>
                    </g>
                </g>
                <path d="M22.407874,5.96617145 C22.6488189,3.2475858 18.2515748,3.42488486 18.2515748,3.42488486 C11.5954724,4.37047987 10.8726378,10.4577477 10.8726378,10.4577477 L11.7761811,9.39395335 C10.3606299,12.4375873 12.4990157,17.6679097 12.6797244,18.0816075 C13.7940945,21.7162383 16.2637795,25.0553707 19.125,25.0553707 C21.9862205,25.0553707 24.4559055,21.7162383 25.5702756,18.0816075 C25.5702756,18.0816075 25.5702756,18.0816075 25.5702756,18.0520576 C25.690748,17.60881 25.8112205,17.1655623 25.9015748,16.7223147 L25.8714567,16.7223147 C26.4738189,14.3583271 27.1364173,11.9647898 27.1364173,11.9647898 C28.8531496,3.48398455 22.407874,5.96617145 22.407874,5.96617145 Z M25.4498031,16.3086168 C25.1787402,18.1407072 24.3655512,19.8545981 23.0102362,21.1547913 C22.7391732,21.4207399 22.4681102,21.6275888 22.1970472,21.8344377 L21.7151575,20.3569455 L16.5348425,20.3569455 L16.0529528,21.8639875 C15.0891732,21.1547913 14.2759843,20.1796464 13.6133858,19.0567523 C13.3122047,18.4657555 13.1314961,17.8452087 13.0411417,17.3133115 C12.1978346,6.70491755 20.480315,8.95070569 20.480315,8.95070569 C26.0521654,8.53700787 25.8714567,13.3536324 25.4498031,16.3086168 Z" id="SVGCleanerId_0" fill="#324A5E" fill-rule="nonzero" mask="url(#mask-2)"></path>
                <path d="M22.407874,5.96617145 C22.6488189,3.2475858 18.2515748,3.42488486 18.2515748,3.42488486 C11.5954724,4.37047987 10.8726378,10.4577477 10.8726378,10.4577477 L11.7761811,9.39395335 C10.3606299,12.4375873 12.4990157,17.6679097 12.6797244,18.0816075 C13.7940945,21.7162383 16.2637795,25.0553707 19.125,25.0553707 C21.9862205,25.0553707 24.4559055,21.7162383 25.5702756,18.0816075 C25.5702756,18.0816075 25.5702756,18.0816075 25.5702756,18.0520576 C25.690748,17.60881 25.8112205,17.1655623 25.9015748,16.7223147 L25.8714567,16.7223147 C26.4738189,14.3583271 27.1364173,11.9647898 27.1364173,11.9647898 C28.8531496,3.48398455 22.407874,5.96617145 22.407874,5.96617145 Z M25.4498031,16.3086168 C25.1787402,18.1407072 24.3655512,19.8545981 23.0102362,21.1547913 C22.7391732,21.4207399 22.4681102,21.6275888 22.1970472,21.8344377 L21.7151575,20.3569455 L16.5348425,20.3569455 L16.0529528,21.8639875 C15.0891732,21.1547913 14.2759843,20.1796464 13.6133858,19.0567523 C13.3122047,18.4657555 13.1314961,17.8452087 13.0411417,17.3133115 C12.1978346,6.70491755 20.480315,8.95070569 20.480315,8.95070569 C26.0521654,8.53700787 25.8714567,13.3536324 25.4498031,16.3086168 Z" id="SVGCleanerId_0_1_" fill="#3A3F4C" fill-rule="nonzero" mask="url(#mask-2)"></path>
                <path d="M22.407874,5.96617145 C22.6488189,3.2475858 18.2515748,3.42488486 18.2515748,3.42488486 C11.5954724,4.37047987 10.8726378,10.4577477 10.8726378,10.4577477 C11.9568898,15.2645224 12.559252,17.8058089 12.6797244,18.0816075 C13.1931581,19.7562234 14.0938787,22.1482682 15.0884626,23.3997419 C16.2525501,24.8645001 17.5820552,25.0553707 19.125,25.0553707 C21.9862205,25.0553707 24.4559055,21.7162383 25.5702756,18.0816075 C25.690748,17.60881 25.8112205,17.1655623 25.9015748,16.7223147 C26.4738189,14.3583271 27.1364173,11.9647898 27.1364173,11.9647898 C28.8531496,3.48398455 22.407874,5.96617145 22.407874,5.96617145 Z M24.9140778,16.3857001 C24.6430148,18.2177904 24.3655512,19.8545981 23.0102362,21.1547913 C22.7391732,21.4207399 22.4681102,21.6275888 22.1970472,21.8344377 L21.8895283,20.3569455 C20.6544559,20.0980889 19.7940269,19.9686605 19.308241,19.9686605 C18.8984082,19.9686605 18.4326943,19.6899941 17.3984054,19.8742337 C17.2706177,19.8969967 16.9827634,20.0579007 16.5348425,20.3569455 L16.0529528,21.8639875 C15.0891732,21.1547913 13.2593801,18.2473403 13.229262,16.3857001 C12.3859549,5.77730609 20.480315,8.95070569 20.480315,8.95070569 C26.0521654,8.53700787 25.3357314,13.4307157 24.9140778,16.3857001 Z" id="Shape" fill="#3A3F4C" fill-rule="nonzero" mask="url(#mask-2)"></path>
                <path d="M17.0167323,21.3616402 C17.5287402,21.9230872 18.2816929,22.3072352 19.125,22.3072352 C19.9683071,22.3072352 20.7212598,21.9526371 21.2332677,21.3616402 L17.0167323,21.3616402 Z" id="Shape" fill="#E0D4D4" fill-rule="nonzero" mask="url(#mask-2)"></path>
            </g>
            <g id="Group-19" transform="translate(41.451456, 29.018058) rotate(-10.000000) translate(-41.451456, -29.018058) translate(1.951456, 15.238988)" fill="#38A6EB" fill-rule="nonzero">
                <path d="M13.6216981,22.0962935 C14.0538412,22.431273 14.9247068,24.3833772 13.9817995,25.7325388 C13.0388922,27.0817005 11.5375711,26.6767197 11.105428,26.3417402 C8.53545652,24.1996909 6.68241685,22.6883342 5.54630897,21.8076702 C4.08565873,20.6754344 2.35391821,19.0356004 0.35108741,16.8881681 C-0.134513681,16.5117502 -0.0992119372,15.4105609 0.35108741,14.9917848 C0.452730265,14.8972574 3.10290396,11.3516123 5.94349518,8.56640366 C7.84246464,6.70445812 10.3152961,5.23839343 10.3620563,5.1633052 C10.6520545,4.69762178 11.5483386,4.37650795 12.5470069,4.76990658 C13.5456753,5.1633052 13.4499129,6.75392852 13.1599147,7.21961194 C13.0911279,7.33007097 11.8409652,8.42223597 9.32994539,10.7584315 C7.41652212,12.5386369 4.12912829,15.6712119 3.84827801,15.9379353 C3.8458178,15.9402717 7.10362451,17.9930578 13.6216981,22.0962935 Z" id="Path-3-Copy-11"></path>
                <path d="M76.8371207,17.3567649 C77.2728314,17.6945099 79.23445,19.953736 78.2837584,21.3140358 C77.3330669,22.6743356 75.8193513,22.2660115 75.3836406,21.9282665 C72.7924524,19.7685332 70.9241147,18.2446993 69.7786275,17.3567649 C68.3059187,16.2151817 66.832932,14.462083 65.3596674,12.0974688 C64.8700574,11.7179433 65.7985485,10.5984282 66.2525654,10.1761948 C66.3550474,10.0808871 67.3150506,6.81438555 70.1790928,4.00618321 C72.0937394,2.12886611 74.5869857,0.650698116 74.6341319,0.574989984 C74.9265242,0.105462049 75.8302077,-0.218302775 76.8371207,0.178343605 C77.8440338,0.574989984 77.7474808,2.17874492 77.4550885,2.64827285 C77.3857337,2.75964379 76.1252501,3.86082532 73.5935003,6.21630767 C71.6642805,8.01120979 69.4530441,11.231276 69.7786275,11.1301563 C70.9199937,10.7756709 73.2728248,12.8512071 76.8371207,17.3567649 Z" id="Path-3-Copy-12" transform="translate(71.880814, 11.130156) scale(-1, -1) translate(-71.880814, -11.130156) "></path>
            </g>
            <path d="M51.2732541,-1.99396055e-13 C50.2717082,1.94655186 49.5139568,3.89316053 49,5.83982602" id="Path-20-Copy-8" stroke="#2DD7A6" stroke-width="1.32" stroke-linecap="round" stroke-linejoin="round"></path>
            <path d="M57.5963104,6.88170109 C56.3300535,7.64808155 55.4646167,8.22906576 55,8.62465371" id="Path-20-Copy-12" stroke="#2DD7A6" stroke-width="1.32" stroke-linecap="round" stroke-linejoin="round"></path>
            <path d="M26.444575,50 C25.3288151,50.9009053 24.5139568,52.3246907 24,54.2713562" id="Path-20-Copy-6" stroke="#505BE4" stroke-width="1.32" stroke-linecap="round" stroke-linejoin="round"></path>
            <path d="M34.2222875,51.2834251 C33.921386,51.3287137 33.5139568,52.3246907 33,54.2713562" id="Path-20-Copy-13" stroke="#2DD7A6" stroke-width="1.32" stroke-linecap="round" stroke-linejoin="round"></path>
        </g>
    </g>
</svg>